<?xml version="1.0" encoding="iso-8859-1"?>
<!-- Uploaded to: SVG Repo, www.svgrepo.com, Generator: SVG Repo Mixer Tools -->
<!DOCTYPE svg PUBLIC "-//W3C//DTD SVG 1.1//EN" "http://www.w3.org/Graphics/SVG/1.1/DTD/svg11.dtd">
<svg fill="#000000" height="800px" width="800px" version="1.1" id="Capa_1" xmlns="http://www.w3.org/2000/svg" xmlns:xlink="http://www.w3.org/1999/xlink" 
	 viewBox="0 0 452.113 452.113" xml:space="preserve">
<g id="XMLID_889_">
	<path id="XMLID_903_" d="M412.652,263.782h-15.849v-36.833c0-5.309-4.303-9.612-9.612-9.612h-48.815
		c-5.309,0-9.612,4.304-9.612,9.612v36.833h-15.848c-7.965,0-14.421,6.456-14.421,14.421v136.04c0,7.965,6.456,14.421,14.421,14.421
		h0.489v11.966c0,6.342,5.141,11.484,11.484,11.484c6.342,0,11.484-5.141,11.484-11.484v-11.966h52.824v11.966
		c0,6.342,5.141,11.484,11.484,11.484c6.342,0,11.483-5.141,11.483-11.484v-11.966h0.489c7.964,0,14.421-6.456,14.421-14.421
		v-136.04C427.072,270.238,420.616,263.782,412.652,263.782z M377.578,263.782h-29.59v-27.22h29.59V263.782z"/>
	<path id="XMLID_955_" d="M267.468,346.22c-2.353,3.803-0.306,1.282-38.475,43.345l10.389,44.272
		c2.987,12.732,15.729,20.631,28.464,17.644c12.731-2.988,20.631-15.731,17.643-28.463L267.468,346.22z"/>
	<circle id="XMLID_956_" cx="123.721" cy="43.556" r="43.555"/>
	<path id="XMLID_966_" d="M235.866,306.794l-92.489-38.092v-0.005c13.026,2.704,89.914,18.667,99.656,20.69
		c4.466,0.927,8.582,2.608,12.244,4.881l-5.273-22.469c-2.512-10.703-12.06-18.27-23.054-18.27h-38.562l-0.701-10.564l-13.074,0.815
		c-11.389,0.71-21.531-6.069-25.656-16.058l-29.33-71.34l45.054,59.417c4.042,5.331,10.445,8.182,16.951,7.772l78.687-4.904
		c10.877-0.678,19.145-10.045,18.468-20.922c-0.679-10.876-10.032-19.16-20.923-18.467l-68.127,4.246l-38.661-50.986l30.887,24.136
		l-1.729-26.055c-1.076-16.214-15.092-28.486-31.306-27.41l-52.354,3.473c-16.214,1.076-28.486,15.092-27.41,31.306
		c0,0,9.004,140.904,9.276,142.72c0.006,0.041,0.01,0.083,0.017,0.125c0.022,0.141,0.051,0.28,0.075,0.421
		c1.326,7.601,6.222,14.525,14.725,18.026H55.04V149.86c0-8.284-6.716-15-15-15s-15,6.716-15,15v164.419c0,8.284,6.716,15,15,15
		h111.117h14.953v0.005l20.544,8.461l-67.853,74.775c-8.788,9.685-8.062,24.66,1.623,33.449c9.694,8.796,24.668,8.054,33.449-1.624
		l90.51-99.743C255.41,332.451,251.007,313.03,235.866,306.794z"/>
</g>
</svg>